<?xml version="1.0" standalone="no"?>
<!DOCTYPE svg PUBLIC "-//W3C//DTD SVG 20010904//EN"
 "http://www.w3.org/TR/2001/REC-SVG-20010904/DTD/svg10.dtd">
<svg version="1.0" xmlns="http://www.w3.org/2000/svg"
 width="960.000000pt" height="960.000000pt" viewBox="0 0 960.000000 960.000000"
 preserveAspectRatio="xMidYMid meet">
<metadata>
Created by potrace 1.14, written by Peter Selinger 2001-2017
</metadata>
<g transform="translate(0.000000,960.000000) scale(0.100000,-0.100000)"
fill="#000000" stroke="none">
<path d="M3227 7863 c-4 -4 -20 -8 -35 -9 -96 -6 -112 -9 -112 -15 0 -4 -13
-6 -29 -5 -17 1 -28 -1 -25 -5 5 -9 -25 -21 -37 -13 -5 3 -9 0 -9 -6 0 -6 -4
-8 -10 -5 -5 3 -10 1 -10 -5 0 -6 -4 -8 -10 -5 -5 3 -10 1 -10 -5 0 -6 -4 -8
-10 -5 -5 3 -10 2 -10 -4 0 -5 -13 -12 -29 -16 -16 -3 -32 -13 -35 -21 -3 -8
-12 -14 -21 -14 -8 0 -15 -4 -15 -10 0 -5 -5 -10 -11 -10 -7 0 -25 -13 -40
-30 -16 -16 -29 -27 -29 -23 0 4 -13 -9 -30 -27 -16 -18 -30 -37 -30 -41 0 -4
-9 -11 -20 -14 -11 -4 -18 -10 -16 -14 3 -4 -6 -19 -19 -33 -13 -14 -21 -29
-18 -32 4 -3 1 -6 -6 -6 -7 0 -10 -4 -7 -9 3 -5 -1 -11 -9 -15 -9 -3 -12 -12
-8 -22 4 -11 3 -15 -4 -11 -7 4 -14 -5 -18 -23 -4 -16 -11 -30 -16 -30 -5 0
-9 -11 -9 -24 0 -14 -5 -28 -10 -31 -6 -4 -8 -11 -5 -16 4 -5 2 -9 -2 -9 -8 0
-10 -9 -16 -65 -1 -14 -6 -25 -11 -25 -5 0 -6 -3 -3 -7 4 -3 2 -12 -4 -20 -9
-10 -8 -13 1 -13 10 0 10 -3 0 -15 -9 -11 -9 -15 -1 -15 9 0 9 -5 1 -20 -8
-15 -8 -20 1 -20 8 0 8 -4 -1 -15 -10 -12 -10 -15 0 -15 10 0 10 -3 1 -14 -8
-10 -9 -16 -1 -21 6 -3 8 -11 4 -16 -10 -16 -12 -59 -3 -53 5 3 9 0 9 -5 0 -6
-5 -11 -11 -11 -8 0 -8 -5 1 -15 10 -12 10 -15 0 -15 -10 0 -10 -3 0 -15 7 -9
8 -15 2 -15 -12 0 -10 -33 3 -42 6 -5 5 -8 -4 -8 -11 0 -11 -3 -1 -15 10 -12
10 -15 0 -15 -10 0 -10 -3 0 -15 10 -12 10 -15 -1 -15 -10 0 -10 -3 -1 -12 8
-8 8 -17 1 -31 -8 -14 -8 -18 0 -13 6 4 11 2 11 -3 0 -6 -5 -11 -11 -11 -8 0
-8 -5 1 -15 10 -12 10 -15 0 -15 -10 0 -10 -3 0 -15 9 -10 9 -15 1 -15 -6 0
-11 -5 -11 -11 0 -5 4 -8 8 -5 4 2 8 -4 8 -14 0 -10 -4 -16 -9 -13 -5 3 -4 -3
2 -14 7 -14 7 -23 -1 -31 -9 -9 -9 -12 0 -12 9 0 10 -5 4 -17 -5 -10 -10 -49
-11 -88 -6 -222 -5 -2462 2 -2458 4 2 7 -1 7 -6 0 -6 -4 -11 -9 -11 -6 0 -6
-12 -1 -29 4 -16 6 -32 2 -35 -3 -3 0 -6 8 -6 10 0 10 -3 0 -15 -7 -8 -8 -15
-3 -15 6 0 10 -15 10 -34 -1 -19 5 -41 12 -49 7 -9 8 -18 3 -21 -6 -3 -4 -23
5 -47 8 -23 12 -48 9 -56 -3 -7 -1 -13 5 -13 6 0 8 -4 4 -9 -3 -5 0 -13 6 -17
8 -4 7 -9 -2 -15 -10 -6 -10 -9 -2 -9 7 0 10 -7 7 -15 -4 -8 -2 -15 3 -15 5 0
10 -12 11 -26 1 -15 7 -33 13 -40 9 -10 8 -14 0 -14 -7 0 -6 -9 5 -25 9 -14
13 -25 9 -25 -4 0 -2 -7 5 -15 7 -8 9 -15 5 -15 -4 0 -1 -8 6 -17 12 -14 12
-15 0 -9 -9 6 -8 0 4 -17 9 -15 13 -32 9 -38 -4 -8 -3 -9 4 -5 11 7 16 -7 15
-41 -1 -7 3 -13 9 -13 5 0 6 -4 3 -10 -3 -6 -1 -10 5 -10 6 0 9 -4 5 -9 -3 -5
0 -15 7 -23 7 -7 15 -24 17 -38 1 -14 7 -27 11 -30 5 -3 11 -19 14 -35 3 -17
3 -24 0 -18 -4 9 -11 10 -25 3 -13 -8 -19 -7 -19 0 0 8 -6 8 -20 0 -11 -6 -20
-7 -20 -2 0 6 -9 12 -20 15 -11 3 -20 1 -20 -4 0 -5 -5 -9 -11 -9 -5 0 -7 5
-3 12 5 7 3 8 -6 3 -12 -7 -30 10 -30 30 0 6 5 3 10 -5 7 -11 8 -7 6 14 -3 30
-37 59 -44 38 -2 -8 -11 -8 -30 -1 -20 8 -29 7 -37 -3 -12 -15 -35 -22 -35
-10 0 4 -9 8 -20 8 -11 0 -20 -4 -20 -8 0 -5 -8 -4 -19 1 -10 6 -21 7 -25 4
-10 -10 -36 -12 -36 -4 0 4 -7 8 -15 8 -8 0 -12 -4 -9 -8 3 -5 -37 -8 -89 -7
-54 0 -103 -4 -115 -11 -15 -8 -22 -8 -22 -1 0 8 -6 8 -20 0 -15 -8 -20 -8
-20 1 0 8 -4 8 -15 -1 -8 -7 -15 -8 -15 -3 0 5 -9 9 -20 9 -11 0 -20 -4 -20
-9 0 -4 -6 -5 -12 0 -18 10 -37 14 -77 14 -18 0 -42 4 -52 10 -12 6 -19 6 -19
0 0 -6 -11 -6 -30 -1 -19 5 -30 5 -30 -1 0 -6 -5 -7 -11 -3 -6 4 -25 8 -41 9
-28 3 -53 15 -29 15 7 0 9 5 6 10 -3 6 -1 10 5 10 7 0 10 -6 7 -13 -3 -8 1
-14 8 -14 7 0 11 6 8 12 -3 9 4 11 23 7 19 -3 25 -1 20 7 -9 14 16 11 26 -3 4
-6 14 -4 24 5 20 16 24 16 35 -3 6 -8 9 -9 9 -1 0 6 11 10 25 8 14 -1 25 3 25
9 0 6 5 4 10 -4 5 -8 10 -10 10 -5 0 6 15 10 32 9 18 -1 36 4 40 10 5 8 8 7 8
-2 0 -7 4 -10 10 -7 5 3 10 13 10 21 0 11 -4 12 -19 4 -25 -13 -34 -13 -26 0
8 12 8 12 -33 1 -20 -6 -30 -6 -27 0 6 9 -33 13 -96 10 -20 -2 -40 3 -44 9 -5
8 -11 8 -21 -1 -8 -6 -14 -7 -14 -2 0 5 -7 10 -15 10 -8 0 -15 -4 -15 -8 0 -4
-12 -1 -27 6 -19 10 -29 11 -34 4 -4 -8 -8 -7 -12 2 -4 11 -6 11 -6 1 -1 -9
-7 -10 -18 -4 -10 4 -30 8 -45 7 -16 0 -28 3 -28 8 0 5 -8 3 -17 -4 -15 -12
-16 -12 -8 1 7 12 6 13 -6 3 -11 -9 -18 -8 -33 3 -16 11 -21 11 -28 1 -6 -9
-8 -9 -8 1 0 10 -5 10 -20 2 -15 -8 -20 -8 -20 1 0 6 -7 9 -15 5 -8 -3 -15 -2
-15 3 0 4 -7 8 -15 8 -8 0 -15 -4 -15 -9 0 -5 -6 -6 -12 -1 -18 10 -37 14 -75
14 -19 0 -33 5 -33 12 0 8 -4 7 -10 -3 -7 -11 -10 -11 -10 -2 0 10 -5 10 -20
2 -11 -6 -20 -7 -20 -2 0 6 -9 12 -20 15 -11 3 -20 1 -20 -4 0 -5 -10 -5 -24
1 -13 5 -27 6 -30 3 -3 -4 -6 -2 -6 4 0 6 -9 9 -19 6 -10 -3 -28 0 -40 6 -15
8 -21 8 -21 1 0 -7 -6 -8 -18 -2 -9 5 -23 7 -29 5 -7 -3 -13 0 -13 6 0 7 -8 7
-26 1 -16 -7 -23 -7 -19 0 4 6 -6 10 -24 10 -16 0 -33 5 -36 10 -5 8 -11 7
-21 -1 -8 -7 -14 -7 -14 -1 0 5 -9 12 -20 15 -11 3 -20 0 -20 -5 0 -6 -8 -4
-18 5 -14 13 -21 14 -30 5 -7 -7 -12 -8 -12 -2 0 5 -17 11 -38 12 -20 2 -39 7
-40 13 -3 6 -9 5 -18 -2 -11 -9 -14 -9 -14 0 0 7 -4 10 -9 6 -5 -3 -12 -1 -15
4 -4 5 -17 8 -31 6 -14 -1 -25 2 -25 7 0 6 -7 8 -15 5 -8 -4 -17 -2 -20 4 -4
5 -11 7 -16 4 -5 -4 -9 0 -9 7 0 9 -3 9 -10 -2 -5 -8 -10 -10 -10 -4 0 7 -7
15 -16 18 -9 4 -13 2 -8 -5 5 -8 1 -8 -13 0 -11 6 -23 7 -27 4 -3 -3 -6 -1 -6
5 0 7 -10 12 -23 12 -13 0 -27 4 -33 10 -5 5 -22 11 -37 12 -15 1 -27 6 -27
11 0 4 -4 5 -10 2 -5 -3 -10 -1 -10 5 0 6 -5 8 -12 4 -8 -5 -5 -11 10 -17 12
-6 22 -14 22 -19 0 -4 9 -8 21 -8 13 0 18 -4 13 -12 -4 -7 -3 -8 4 -4 6 4 21
-3 32 -14 11 -11 25 -18 30 -15 6 4 10 3 10 -2 0 -12 51 -33 63 -26 6 3 7 1 4
-4 -8 -12 17 -36 26 -26 4 3 7 1 7 -6 0 -7 4 -10 9 -6 6 3 14 -3 20 -12 6 -10
11 -14 11 -9 0 5 10 1 22 -10 12 -10 18 -13 14 -6 -7 11 -4 11 12 1 12 -7 19
-15 18 -19 -2 -3 11 -12 30 -21 19 -9 31 -11 28 -5 -3 6 1 3 9 -6 8 -10 20
-18 26 -18 7 0 9 -5 5 -12 -4 -6 -3 -8 4 -4 6 3 18 -1 26 -10 9 -8 16 -13 16
-10 0 4 18 -5 40 -19 22 -14 44 -25 50 -25 5 0 10 -5 10 -11 0 -5 5 -7 10 -4
6 3 13 -1 16 -9 3 -9 10 -14 14 -11 5 3 15 -2 23 -10 9 -8 20 -15 26 -15 6 0
11 -5 11 -11 0 -5 4 -8 9 -4 5 3 15 0 23 -7 7 -7 20 -14 28 -16 8 -2 17 -7 20
-11 3 -5 25 -19 50 -31 25 -12 48 -27 51 -32 3 -4 16 -11 30 -13 13 -3 25 -9
27 -15 2 -6 7 -8 12 -5 5 3 16 -2 24 -11 9 -8 16 -13 16 -10 0 3 9 -2 20 -11
21 -18 28 -39 10 -28 -6 4 -17 2 -24 -4 -7 -6 -25 -12 -40 -13 -15 -1 -32 -8
-37 -14 -5 -7 -19 -10 -30 -7 -12 4 -25 0 -30 -8 -7 -12 -9 -12 -9 1 0 11 -2
12 -8 3 -4 -7 -21 -14 -38 -16 -16 -2 -40 -9 -53 -16 -19 -11 -22 -11 -15 1 6
10 5 11 -8 1 -8 -7 -18 -10 -21 -6 -4 3 -7 2 -7 -3 0 -5 -12 -11 -26 -12 -15
-1 -34 -8 -42 -15 -13 -10 -14 -9 -7 2 6 11 5 12 -6 5 -8 -4 -18 -9 -24 -11
-5 -1 -21 -5 -35 -8 -14 -3 -38 -8 -53 -10 -16 -2 -34 -8 -40 -12 -7 -5 -24
-9 -40 -8 -15 0 -27 -3 -27 -8 0 -4 -4 -5 -10 -2 -5 3 -19 1 -30 -5 -15 -8
-20 -8 -20 1 0 8 -4 8 -15 -1 -9 -7 -34 -14 -57 -15 -23 -2 -44 -7 -45 -12 -2
-5 -18 -7 -35 -5 -22 3 -29 1 -24 -7 8 -13 -15 -11 -25 2 -7 10 -39 -2 -39
-14 0 -5 -5 -9 -11 -9 -5 0 -8 4 -5 8 7 11 -66 2 -81 -10 -9 -7 -13 -6 -13 3
0 11 -2 11 -10 -1 -8 -12 -11 -13 -19 -1 -6 9 -11 10 -15 2 -4 -6 -13 -8 -19
-5 -7 4 -8 3 -4 -2 5 -5 12 -9 15 -9 4 0 13 -4 20 -8 6 -5 12 -6 12 -3 0 3 12
1 26 -4 16 -7 23 -7 19 0 -3 6 1 7 9 4 9 -3 16 -11 16 -16 0 -6 6 -5 15 2 11
10 15 10 15 0 0 -6 6 -10 13 -7 6 2 20 0 29 -5 13 -6 18 -5 18 4 0 8 5 6 11
-5 8 -13 14 -15 29 -7 13 7 21 7 26 -1 3 -6 15 -9 25 -6 10 3 22 1 25 -4 3 -5
10 -6 16 -3 6 4 15 0 20 -7 8 -11 11 -11 15 -1 4 9 9 10 18 2 7 -6 29 -11 49
-12 20 -1 36 -4 36 -7 0 -3 15 -7 33 -8 43 -4 60 -7 75 -16 7 -5 12 -3 12 4 0
9 3 9 14 -1 8 -6 29 -10 46 -8 18 2 34 -3 39 -11 6 -10 10 -10 16 -2 5 9 13 8
31 -4 16 -10 24 -11 24 -4 0 8 4 8 15 -1 8 -7 15 -9 15 -5 0 4 8 1 17 -6 15
-12 16 -12 8 1 -8 13 -6 13 8 1 9 -7 30 -11 46 -9 17 2 28 1 25 -4 -3 -4 1 -8
8 -9 7 0 31 -2 53 -5 22 -2 55 -5 72 -6 18 -2 33 -5 33 -8 0 -5 41 -11 93 -13
9 -1 17 -4 17 -8 0 -3 20 -6 45 -6 24 0 42 3 40 8 -3 4 -1 10 5 14 6 4 8 11 5
16 -4 5 -2 9 3 9 16 0 22 -13 11 -27 -9 -10 -8 -13 2 -13 11 0 11 -3 -1 -11
-12 -8 -12 -12 -2 -16 10 -4 10 -8 0 -21 -11 -13 -11 -14 2 -7 13 8 13 7 1 -8
-9 -11 -10 -17 -2 -17 6 0 11 -9 11 -19 0 -11 5 -23 10 -26 6 -3 10 -1 10 6 0
8 4 8 13 1 7 -6 32 -12 55 -13 23 -2 42 -6 42 -9 0 -3 15 -6 33 -5 17 0 38 -3
45 -8 8 -6 12 -5 12 3 0 10 3 10 15 0 8 -7 15 -9 15 -4 0 5 4 3 9 -5 8 -12 12
-12 25 -2 9 8 16 9 16 3 0 -5 15 -9 34 -8 19 1 32 -2 30 -6 -3 -5 0 -8 5 -8 6
0 11 5 11 11 0 8 4 9 13 0 8 -6 17 -8 20 -4 4 3 7 1 7 -5 0 -7 5 -12 11 -12 5
0 8 4 5 8 -8 13 30 7 47 -7 12 -9 16 -9 20 1 4 10 7 10 15 -1 8 -11 10 -11 15
0 4 11 6 11 6 1 1 -7 6 -10 11 -7 6 4 18 1 27 -7 13 -10 17 -10 20 -1 4 10 10
10 25 2 11 -6 35 -9 53 -7 20 2 31 0 28 -6 -4 -5 1 -7 10 -3 10 3 17 3 17 -1
0 -9 42 -8 57 1 6 4 13 3 15 -1 1 -5 17 -12 33 -16 20 -4 25 -3 16 3 -10 7 -7
9 12 8 14 -1 23 -5 20 -9 -2 -5 1 -8 6 -8 6 0 11 4 11 9 0 6 12 3 28 -4 16 -9
28 -11 30 -5 2 6 11 6 23 -1 11 -5 23 -7 28 -4 5 3 12 -1 14 -7 4 -10 6 -10 6
0 1 10 6 10 21 2 15 -8 20 -8 20 2 0 9 3 9 10 -2 5 -8 10 -11 10 -6 0 5 7 3
15 -4 12 -10 15 -10 15 0 0 10 3 10 15 0 12 -10 15 -10 15 0 0 9 4 9 17 -1 9
-8 14 -9 10 -2 -5 7 0 9 13 6 11 -3 18 -9 15 -12 -2 -4 17 -6 42 -4 31 3 49 0
55 -9 7 -9 11 -10 14 -1 4 8 14 9 35 3 18 -5 29 -5 29 1 0 6 9 5 21 -2 12 -6
32 -9 45 -6 13 2 21 0 18 -4 -3 -5 0 -9 5 -9 6 0 11 4 11 9 0 5 16 5 37 1 20
-5 41 -7 45 -4 4 3 8 0 8 -7 0 -8 4 -8 15 1 11 9 15 9 15 1 0 -7 5 -9 11 -6
15 10 59 14 54 5 -2 -4 14 -7 36 -8 23 -1 45 -4 50 -8 5 -3 9 -1 9 5 0 6 11 6
30 1 17 -5 30 -7 30 -4 0 3 9 0 19 -6 14 -7 21 -6 24 3 4 8 8 8 14 2 10 -12
43 -16 43 -5 0 11 33 7 42 -4 3 -5 45 -9 92 -7 59 1 86 -2 86 -10 0 -8 4 -8
15 1 10 9 15 9 15 1 0 -6 5 -11 10 -11 6 0 19 -9 30 -20 11 -11 27 -20 35 -20
8 0 15 -5 15 -11 0 -5 5 -7 10 -4 6 3 10 1 10 -5 0 -6 5 -8 10 -5 6 3 10 2 10
-4 0 -5 16 -15 35 -22 19 -7 35 -17 35 -21 0 -4 7 -8 15 -8 8 0 15 -4 15 -10
0 -5 9 -10 20 -10 11 0 20 -5 20 -11 0 -5 5 -7 10 -4 6 3 10 1 10 -5 0 -6 4
-8 10 -5 5 3 10 1 10 -5 0 -6 4 -8 10 -5 5 3 10 1 10 -5 0 -7 7 -10 15 -6 8 3
15 2 15 -3 0 -10 38 -24 58 -22 6 1 12 -3 12 -9 0 -6 5 -8 10 -5 6 3 10 1 10
-4 0 -6 8 -11 18 -11 10 0 28 -8 41 -17 18 -12 22 -13 16 -2 -7 11 -6 12 7 2
8 -7 18 -10 21 -6 4 3 7 1 7 -6 0 -7 5 -9 10 -6 6 3 10 0 10 -7 0 -11 2 -10 9
0 7 11 9 11 14 -2 4 -9 12 -16 19 -16 9 0 8 3 -2 10 -8 5 -11 10 -6 10 5 0 18
-7 28 -17 10 -9 32 -18 50 -20 17 -2 38 -9 47 -16 12 -10 13 -9 6 3 -8 13 -7
13 8 1 9 -7 26 -11 37 -8 11 3 20 2 20 -3 0 -4 7 -11 16 -14 10 -4 13 -2 8 7
-6 9 -5 9 7 0 13 -11 35 -16 124 -29 22 -4 42 -10 43 -16 2 -5 10 -4 18 3 11
9 14 8 14 -2 0 -10 3 -10 12 -1 7 7 17 8 28 2 10 -5 49 -11 86 -14 38 -2 77
-7 86 -11 18 -7 265 -1 338 8 25 4 60 7 78 9 17 1 32 6 32 11 0 5 7 4 15 -3
11 -9 15 -10 15 -1 0 8 8 10 21 6 16 -5 19 -4 14 5 -6 10 -3 10 10 2 14 -7 23
-6 33 5 11 11 17 11 22 3 5 -9 9 -9 14 -1 4 6 18 11 32 11 13 0 24 4 24 10 0
5 7 7 15 4 8 -4 15 -1 15 5 0 6 5 11 11 11 5 0 7 -6 3 -12 -4 -7 1 -5 12 4 11
10 30 16 42 13 12 -2 22 1 22 6 0 6 5 7 10 4 6 -3 10 -1 10 5 0 6 5 8 10 5 6
-3 10 -2 10 4 0 5 9 8 20 6 11 -2 20 0 20 6 0 5 3 8 8 7 14 -4 52 13 52 23 0
6 4 7 10 4 5 -3 20 0 32 7 13 7 25 13 28 13 15 3 85 41 88 48 2 4 8 5 13 1 5
-3 9 0 9 6 0 6 5 8 10 5 6 -3 10 -1 10 4 0 6 3 10 8 9 16 -3 42 15 35 25 -4 6
0 8 10 4 10 -3 17 -2 17 4 0 6 5 7 10 4 6 -3 10 -1 10 5 0 6 5 8 10 5 6 -3 10
-2 10 3 0 5 12 15 28 23 15 8 32 20 37 27 6 7 19 14 29 16 9 1 21 7 24 12 4 6
21 20 38 31 25 18 43 21 98 19 49 -1 70 2 73 11 4 10 9 11 19 2 9 -8 14 -8 14
-1 0 7 10 8 29 2 21 -6 31 -5 35 3 3 8 7 9 13 2 11 -13 36 -18 28 -5 -4 6 18
9 64 7 39 -1 71 2 71 7 0 5 3 6 7 3 3 -4 12 -2 20 4 10 9 13 8 13 -1 0 -9 4
-9 17 1 11 10 14 10 9 2 -4 -7 -2 -13 3 -13 6 0 11 5 11 11 0 8 5 8 15 -1 12
-10 15 -10 15 1 0 12 2 12 9 0 5 -7 11 -9 14 -4 4 5 37 10 74 11 110 1 114 2
109 10 -3 5 1 9 9 9 8 0 15 -4 15 -8 0 -9 20 -6 38 4 7 5 12 3 12 -4 0 -10 3
-10 11 -2 6 6 18 9 25 6 8 -3 14 0 14 6 0 6 5 11 11 11 5 0 8 -3 6 -7 -8 -12
72 -7 86 5 8 7 18 7 27 2 9 -5 19 -5 27 2 10 8 13 7 13 -3 0 -10 3 -10 11 -2
6 6 18 9 27 6 8 -4 13 -2 10 3 -4 5 14 8 40 8 26 -1 50 3 54 10 6 8 8 8 8 -1
0 -8 9 -9 29 -3 21 6 31 5 35 -3 3 -9 5 -9 5 0 1 7 8 10 18 6 9 -4 14 -2 10 3
-4 7 15 9 50 6 42 -3 54 -1 48 8 -6 9 -3 9 13 1 25 -13 35 -14 28 -3 -3 5 1 9
9 9 8 0 15 -4 15 -9 0 -5 10 -2 23 6 13 8 30 11 42 6 23 -8 55 -2 55 11 0 5 5
9 11 9 5 0 7 -6 3 -13 -5 -8 -2 -8 9 2 14 11 17 11 17 0 0 -11 2 -11 10 1 9
13 10 13 10 0 0 -9 3 -11 8 -5 8 12 21 15 71 18 20 1 42 6 49 10 7 5 12 3 12
-4 0 -8 5 -7 17 2 15 12 16 12 9 -1 -7 -11 -4 -11 9 2 13 12 24 14 41 7 17 -6
24 -5 24 4 0 8 4 7 10 -3 7 -12 10 -12 10 -1 0 7 6 11 15 8 8 -4 17 -2 20 3 4
7 13 6 26 0 10 -6 19 -7 19 -2 0 4 21 9 48 11 26 1 51 6 56 11 5 5 17 5 28 -1
12 -7 18 -6 18 1 0 6 5 8 10 5 6 -3 10 -1 10 5 0 6 4 9 9 6 5 -4 7 2 5 11 -9
48 -10 112 -1 106 6 -4 8 0 5 9 -4 8 0 15 8 15 7 0 11 -4 8 -8 -2 -4 0 -10 6
-14 5 -3 10 -2 10 3 0 5 9 12 20 15 11 3 17 1 14 -4 -3 -6 10 -3 30 5 23 10
36 11 36 4 0 -7 4 -7 14 1 7 6 21 9 30 5 9 -3 16 -2 16 4 0 6 10 8 22 4 15 -4
19 -2 13 7 -6 10 -3 11 15 1 16 -9 25 -9 33 -1 6 6 25 11 42 11 17 0 37 6 44
13 11 10 12 9 6 -3 -7 -12 -6 -13 7 -3 8 7 18 10 21 6 4 -3 7 0 7 8 0 11 2 11
10 -1 6 -10 10 -11 10 -2 0 6 5 12 11 12 5 0 7 -6 3 -12 -4 -7 2 -5 13 5 12
11 22 14 24 8 3 -7 13 -6 30 3 15 7 32 10 39 6 7 -4 24 -2 38 6 20 10 28 11
34 1 4 -7 8 -7 8 -2 0 10 25 16 77 19 11 0 19 4 17 7 -2 4 9 7 24 6 31 0 77 9
92 18 5 3 10 0 10 -7 0 -10 2 -10 8 0 5 7 31 13 59 15 28 1 49 6 46 11 -3 4 4
5 16 1 13 -4 21 -2 21 5 0 7 6 8 16 2 18 -10 84 8 84 23 0 5 5 3 10 -5 5 -8
10 -10 10 -3 0 6 9 9 22 5 15 -4 19 -2 13 7 -6 10 -3 11 15 1 16 -9 25 -9 33
-1 6 6 26 11 44 11 18 0 33 5 33 10 0 6 -18 10 -40 10 -22 0 -40 5 -40 10 0 7
-6 7 -20 0 -14 -8 -20 -8 -20 0 0 7 -8 9 -19 5 -11 -3 -22 -2 -24 2 -3 5 -21
8 -41 7 -20 -1 -36 3 -36 8 0 6 -6 5 -15 -2 -10 -8 -15 -9 -15 -2 0 7 -7 9
-17 5 -10 -4 -14 -2 -10 4 4 6 -3 8 -18 5 -17 -3 -25 0 -25 9 0 11 -2 11 -10
-1 -5 -8 -10 -10 -10 -5 0 9 -31 15 -92 18 -10 1 -18 6 -18 11 0 5 -3 6 -6 3
-4 -3 -15 -2 -25 4 -14 7 -19 6 -19 -2 0 -7 -8 -5 -20 6 -13 12 -20 14 -20 5
0 -9 -3 -10 -13 -1 -8 6 -22 12 -33 14 -10 1 -25 6 -32 11 -7 4 -16 6 -18 3
-3 -3 -20 -1 -37 4 -37 11 -86 21 -104 22 -7 0 -13 3 -13 7 0 3 -14 7 -31 8
-17 1 -38 9 -46 17 -17 17 -27 20 -18 5 8 -14 1 -13 -41 5 -20 8 -40 12 -45 9
-5 -3 -9 -1 -9 5 0 6 -7 8 -15 5 -8 -4 -15 -1 -15 6 0 6 -5 8 -10 5 -6 -4 -18
-1 -27 7 -14 11 -16 11 -8 -2 8 -13 7 -13 -8 -1 -20 16 -9 36 26 47 12 4 28
14 35 23 9 10 11 11 6 2 -5 -9 5 -6 23 7 17 12 36 22 42 22 6 0 11 5 11 11 0
5 5 7 10 4 6 -3 10 -1 10 5 0 6 5 8 10 5 6 -3 13 0 16 9 3 8 11 13 18 10 6 -2
21 4 33 15 11 11 23 17 27 14 3 -3 8 1 12 10 3 9 12 13 20 10 7 -3 17 2 20 11
3 9 15 16 25 16 10 0 19 5 19 11 0 5 5 7 10 4 6 -3 10 -2 10 2 0 5 20 17 44
28 24 11 42 24 38 29 -3 5 2 7 11 3 10 -3 17 -2 17 3 0 6 7 10 15 10 8 0 15 5
15 11 0 5 5 7 10 4 6 -3 10 -1 10 5 0 6 5 8 10 5 6 -3 10 -1 10 5 0 6 4 9 9 6
5 -3 12 1 15 10 3 8 10 12 16 9 5 -3 10 -2 10 4 0 9 40 27 48 22 2 -1 10 6 18
16 7 10 14 14 14 9 0 -6 7 -1 16 10 8 10 13 12 9 4 -4 -9 -1 -8 8 3 9 10 18
18 21 18 11 -1 76 33 76 40 0 4 10 9 23 13 13 3 34 14 46 26 13 11 28 17 32
14 5 -3 13 3 17 13 4 10 15 19 25 19 34 2 37 4 37 19 0 19 -2 19 -44 -4 -19
-11 -37 -17 -40 -14 -3 4 -6 2 -6 -3 0 -5 -12 -11 -26 -12 -15 -1 -34 -8 -42
-15 -13 -9 -14 -9 -8 0 5 9 2 11 -8 7 -9 -3 -16 -11 -16 -18 0 -6 -5 -4 -10 4
-7 11 -10 11 -10 2 0 -7 -4 -11 -9 -7 -5 3 -12 1 -16 -4 -3 -5 -14 -8 -25 -6
-11 2 -20 0 -20 -5 0 -5 -14 -8 -31 -6 -17 2 -33 -2 -35 -8 -2 -6 -20 -11 -39
-11 -19 1 -35 -2 -35 -7 0 -5 -4 -6 -10 -3 -5 3 -10 2 -10 -3 0 -6 -9 -8 -20
-5 -11 3 -27 0 -35 -7 -12 -10 -15 -10 -15 1 0 10 -3 10 -11 2 -6 -6 -18 -9
-27 -6 -9 4 -13 2 -9 -4 3 -5 0 -10 -8 -10 -8 0 -12 4 -8 9 3 6 -9 2 -26 -6
-18 -10 -31 -12 -31 -6 0 6 -12 2 -27 -7 -15 -10 -24 -12 -20 -6 6 10 2 11
-18 3 -15 -6 -30 -8 -35 -5 -5 3 -11 1 -15 -4 -3 -6 -12 -8 -20 -4 -8 3 -15 0
-15 -6 0 -6 -5 -11 -11 -11 -5 0 -8 4 -5 8 8 13 -38 8 -52 -5 -10 -9 -19 -10
-33 -3 -13 8 -19 7 -19 0 0 -6 -4 -8 -10 -5 -5 3 -10 2 -10 -4 0 -7 -9 -7 -22
-3 -27 10 -58 5 -58 -9 0 -5 -5 -9 -11 -9 -5 0 -7 6 -3 13 5 8 2 8 -9 -2 -14
-11 -17 -11 -17 0 0 9 -3 10 -8 4 -4 -6 -14 -10 -22 -10 -8 1 -21 -3 -28 -8
-8 -7 -17 -6 -24 1 -8 8 -15 7 -24 -6 -10 -12 -13 -13 -14 -3 0 11 -3 11 -15
1 -12 -10 -15 -10 -15 0 0 10 -3 10 -15 0 -12 -10 -15 -10 -15 0 0 10 -3 10
-15 0 -8 -7 -30 -10 -50 -8 -24 3 -36 -1 -40 -11 -5 -12 -8 -13 -14 -2 -7 10
-13 11 -30 2 -16 -9 -21 -9 -21 0 0 8 -4 8 -15 -1 -12 -10 -15 -10 -15 1 0 11
-2 11 -10 -1 -5 -8 -10 -12 -10 -8 0 4 -13 3 -29 -2 -21 -6 -31 -5 -35 3 -3 8
-5 7 -5 -2 -1 -11 -4 -11 -16 -1 -11 9 -15 9 -15 1 0 -7 -4 -10 -8 -7 -4 2
-14 1 -22 -4 -8 -5 -21 -5 -31 1 -12 6 -20 5 -25 -2 -5 -8 -9 -7 -14 2 -6 9
-12 9 -25 -4 -18 -18 -30 -23 -20 -8 3 6 -6 7 -22 3 -16 -4 -51 -7 -79 -7 -28
0 -57 -6 -63 -12 -9 -10 -8 -13 4 -14 8 -1 21 -2 28 -3 6 -1 18 2 25 7 8 6 12
5 12 -3 0 -10 3 -10 15 0 12 10 15 10 15 0 0 -8 3 -10 6 -7 4 3 15 2 25 -4 13
-6 19 -6 19 1 0 5 5 10 11 10 5 0 8 -4 5 -8 -3 -5 8 -6 25 -4 16 2 36 -1 44
-8 9 -8 15 -8 15 -2 0 7 10 8 29 2 21 -6 31 -5 35 3 3 9 7 8 14 -2 7 -10 22
-12 48 -8 22 3 33 3 27 0 -7 -2 -13 -10 -13 -16 0 -7 -11 -12 -24 -12 -13 0
-22 3 -19 8 2 4 -1 7 -6 7 -6 0 -11 -5 -11 -11 0 -5 -4 -8 -9 -4 -5 3 -13 0
-17 -6 -5 -8 -9 -7 -14 2 -7 10 -12 10 -26 -2 -20 -16 -24 -16 -35 3 -6 8 -9
9 -9 1 0 -6 -11 -10 -25 -8 -14 1 -25 -2 -25 -6 0 -5 -5 -9 -11 -9 -5 0 -7 4
-4 10 6 9 -3 8 -42 -6 -22 -8 -53 -9 -73 -1 -21 8 -130 13 -130 6 0 -3 -20 -3
-45 1 -25 4 -45 4 -45 1 0 -3 -4 0 -9 8 -6 8 -14 10 -22 5 -18 -11 -39 -14
-39 -5 0 4 -9 7 -20 7 -11 0 -20 -4 -20 -7 0 -4 -13 -4 -29 1 -21 6 -31 5 -35
-3 -3 -9 -7 -8 -14 1 -5 8 -22 12 -38 11 -16 -2 -35 0 -42 4 -7 5 -12 3 -12
-5 0 -9 -3 -9 -10 2 -7 11 -10 11 -10 2 0 -10 -5 -10 -20 -2 -15 8 -20 8 -20
-2 0 -10 -2 -10 -8 -1 -5 8 -12 8 -26 -3 -14 -10 -16 -14 -5 -14 12 0 12 -2
-1 -10 -13 -8 -13 -10 0 -10 10 0 11 -3 3 -11 -6 -6 -9 -17 -7 -24 3 -6 -1
-12 -8 -13 -7 0 -23 -3 -35 -6 -14 -3 -23 0 -23 7 0 7 -4 6 -10 -3 -5 -8 -10
-10 -10 -3 0 9 -19 11 -40 3 -3 -1 -8 -2 -12 -1 -5 0 -8 -4 -8 -10 0 -8 -4 -9
-13 0 -8 6 -17 8 -20 4 -4 -3 -7 1 -7 10 0 10 4 17 10 17 5 0 6 7 3 17 -4 11
-3 14 5 9 11 -7 13 -3 16 37 1 6 7 18 14 25 7 8 10 17 7 22 -3 5 -1 11 5 15 6
4 8 11 5 16 -4 5 -2 9 3 9 5 0 9 7 10 15 1 8 3 22 4 30 1 8 5 15 9 15 4 0 6 9
4 20 -2 11 1 20 7 20 5 0 8 7 4 15 -3 8 -2 15 3 15 9 0 19 46 24 103 1 15 6
27 10 27 5 0 6 4 2 9 -3 5 -1 13 5 16 8 5 7 11 -1 21 -7 8 -7 14 -1 14 5 0 12
11 14 25 3 13 1 22 -3 19 -14 -9 -10 6 6 22 18 18 20 34 4 34 -8 0 -7 6 2 17
10 11 10 14 2 9 -7 -4 -13 -2 -13 3 0 6 5 11 11 11 6 0 9 9 6 20 -3 11 -2 20
2 20 4 0 7 9 7 20 0 11 -5 20 -11 20 -5 0 -3 5 5 10 13 9 13 10 0 10 -13 0
-13 1 0 10 13 9 13 10 0 10 -13 0 -13 1 0 10 10 6 11 10 3 10 -9 0 -10 7 -3
25 5 14 6 25 2 25 -4 0 0 5 8 10 11 7 11 10 2 10 -10 0 -10 5 -2 20 8 15 8 20
-1 20 -8 0 -7 5 2 17 12 15 12 16 -1 8 -13 -8 -13 -7 -1 8 11 14 11 17 0 17
-10 0 -10 3 -1 12 7 7 8 17 1 30 -7 13 -6 18 2 18 9 0 9 3 0 14 -9 11 -9 15 1
19 10 4 10 6 -1 6 -11 1 -11 4 -1 16 10 12 10 15 0 15 -10 0 -10 3 -1 14 9 11
9 15 -1 19 -10 4 -10 6 1 6 11 1 11 4 1 16 -9 10 -9 15 -1 15 6 0 11 5 11 11
0 5 -6 7 -12 3 -9 -5 -9 -2 1 9 11 14 11 17 0 17 -10 0 -10 3 -1 12 7 7 8 17
1 30 -7 13 -6 18 2 18 9 0 9 3 0 14 -9 11 -9 15 1 19 10 4 10 6 -1 6 -11 1
-11 4 -1 16 10 12 10 15 0 15 -10 0 -10 3 -1 14 9 11 9 15 -1 19 -10 4 -10 6
1 6 11 1 11 4 1 16 -7 8 -8 15 -3 15 5 0 9 9 9 20 0 11 -4 20 -9 20 -5 0 -4 7
3 15 8 10 9 15 1 15 -7 0 -8 8 -1 25 7 17 6 25 -1 25 -8 0 -7 5 1 15 8 10 9
15 1 15 -7 0 -8 8 -1 25 7 17 6 25 -1 25 -8 0 -7 5 1 15 8 10 9 15 1 15 -7 0
-8 8 -1 25 7 17 6 25 -1 25 -8 0 -7 5 1 15 8 10 9 15 1 15 -7 0 -8 8 -1 25 7
17 6 25 -1 25 -8 0 -7 5 1 15 8 10 9 15 1 15 -7 0 -8 8 -1 25 7 17 6 25 -1 25
-8 0 -7 5 1 15 8 10 9 15 1 15 -7 0 -8 8 -1 25 7 17 6 25 -1 25 -8 0 -7 5 1
15 8 10 9 15 1 15 -7 0 -8 8 -1 25 7 17 6 25 -1 25 -8 0 -7 5 1 15 10 12 10
15 0 15 -9 0 -9 4 1 17 12 15 12 16 -1 8 -13 -8 -13 -7 -1 8 11 14 11 17 0 17
-10 0 -10 3 -1 12 7 7 8 17 1 30 -7 13 -6 18 2 18 9 0 9 3 0 14 -9 11 -9 15 1
19 10 4 10 6 -1 6 -11 1 -11 4 -1 16 10 12 10 15 0 15 -10 0 -10 3 -1 14 9 11
9 15 -1 19 -10 4 -10 6 1 6 11 1 11 4 1 16 -9 10 -9 15 -1 15 6 0 11 5 11 11
0 5 -6 7 -12 3 -9 -5 -9 -2 1 9 11 14 11 17 0 17 -10 0 -10 3 -1 12 7 7 8 17
1 30 -7 13 -6 18 2 18 9 0 9 3 0 14 -9 11 -9 15 1 19 10 4 10 6 -1 6 -11 1
-11 4 -1 16 10 12 10 15 0 15 -10 0 -10 3 -1 14 9 11 9 15 -1 19 -10 4 -10 6
1 6 11 1 11 4 1 16 -9 10 -9 15 -1 15 6 0 11 5 11 11 0 5 -6 7 -12 3 -9 -5 -9
-2 1 9 11 14 11 17 0 17 -10 0 -10 3 -1 12 7 7 8 17 1 30 -7 13 -6 18 2 18 9
0 9 3 0 14 -9 11 -9 15 1 19 10 4 10 6 -1 6 -11 1 -11 4 -1 16 10 12 10 15 0
15 -10 0 -10 3 -1 14 9 11 9 15 -1 19 -10 4 -10 6 1 6 11 1 11 4 1 16 -9 10
-9 15 -1 15 6 0 11 5 11 11 0 5 -6 7 -12 3 -9 -5 -9 -2 1 9 11 14 11 17 0 17
-10 0 -10 3 -1 12 7 7 8 17 1 30 -7 13 -6 18 2 18 9 0 9 3 0 14 -9 11 -9 15 1
19 10 4 10 6 -1 6 -11 1 -11 4 -1 16 10 12 10 15 0 15 -10 0 -10 3 -1 14 9 11
9 15 -1 19 -10 4 -10 6 1 6 11 1 11 4 1 16 -9 10 -9 15 -1 15 6 0 11 5 11 11
0 5 -6 7 -12 3 -9 -5 -9 -2 1 9 11 14 11 17 0 17 -10 0 -10 3 -1 12 7 7 8 17
1 30 -7 13 -6 18 2 18 9 0 9 3 0 14 -9 11 -9 15 1 19 10 4 10 6 -1 6 -11 1
-11 4 -1 16 10 12 10 15 0 15 -10 0 -10 3 -1 14 9 11 9 15 -1 19 -10 4 -10 6
1 6 11 1 11 4 1 16 -9 10 -9 15 -1 15 6 0 11 5 11 11 0 5 -6 7 -12 3 -9 -5 -9
-2 1 9 9 12 10 17 2 17 -7 0 -9 5 -5 12 10 17 11 68 0 68 -5 0 -3 7 4 15 8 10
9 15 1 15 -7 0 -8 8 -1 25 7 17 6 25 -1 25 -8 0 -7 5 1 15 8 10 9 15 1 15 -7
0 -8 8 -1 25 7 17 6 25 -1 25 -8 0 -7 5 1 15 8 10 9 15 1 15 -7 0 -8 8 -1 25
7 17 6 25 -1 25 -8 0 -7 5 1 15 8 10 9 15 1 15 -7 0 -8 8 -1 25 7 17 6 25 -1
25 -8 0 -7 5 1 15 8 10 9 15 1 15 -7 0 -8 8 -1 25 7 17 6 25 -1 25 -8 0 -7 5
1 15 8 10 9 15 1 15 -7 0 -8 8 -1 25 7 17 6 25 -1 25 -8 0 -7 5 1 15 8 10 9
15 1 15 -7 0 -8 8 -1 25 7 17 6 25 -1 25 -8 0 -7 5 1 15 9 11 9 15 1 15 -9 0
-9 5 -1 20 8 14 8 20 0 20 -6 0 -9 4 -6 8 2 4 1 14 -4 22 -5 8 -4 22 1 33 7
13 7 23 -2 33 -9 11 -9 14 1 14 10 0 10 4 -2 18 -8 9 -13 27 -12 40 0 12 -4
22 -10 22 -6 0 -4 5 4 10 11 7 11 10 2 10 -7 0 -10 5 -7 10 3 6 1 10 -4 10 -6
0 -10 3 -9 8 5 18 -16 78 -31 89 -9 6 -13 15 -9 19 4 4 0 13 -10 21 -9 8 -11
11 -4 8 20 -11 1 22 -58 99 -17 21 -30 43 -30 48 0 5 -4 7 -9 4 -5 -3 -11 4
-14 15 -3 11 -15 23 -26 26 -13 3 -18 10 -14 20 4 10 2 14 -7 11 -7 -2 -28 12
-46 31 -19 19 -34 31 -34 27 0 -4 -10 2 -22 14 -12 11 -26 20 -31 20 -4 0 -15
7 -24 15 -8 8 -19 13 -24 10 -5 -4 -9 -3 -9 2 0 4 -11 13 -25 20 -19 8 -24 8
-19 0 3 -7 -1 -4 -10 7 -8 10 -19 15 -25 11 -6 -3 -11 -1 -11 5 0 7 -6 10 -14
7 -7 -3 -23 1 -35 9 -14 11 -21 11 -21 3 0 -9 -4 -8 -15 1 -9 7 -68 14 -152
18 -197 9 -3068 14 -3076 5z m5086 -4705 c-12 -13 -13 -18 -3 -18 7 0 11 -3 7
-6 -3 -3 -10 -3 -15 0 -14 9 -3 43 14 43 11 0 11 -4 -3 -19z m-1 -55 c-6 -2
-10 -9 -7 -13 3 -5 1 -11 -4 -14 -7 -5 -8 11 -2 32 1 1 7 2 14 1 9 0 9 -2 -1
-6z m-7 -73 c-3 -4 0 -11 5 -13 6 -3 5 -4 -1 -3 -7 1 -13 10 -15 19 -1 9 2 15
7 11 5 -3 7 -9 4 -14z m7 -47 c-6 -2 -10 -9 -7 -13 3 -5 1 -11 -4 -14 -7 -5
-8 11 -2 32 1 1 7 2 14 1 9 0 9 -2 -1 -6z m-7 -73 c-3 -4 0 -11 5 -13 6 -3 5
-4 -1 -3 -7 1 -13 10 -15 19 -1 9 2 15 7 11 5 -3 7 -9 4 -14z m7 -47 c-6 -2
-10 -9 -7 -13 3 -5 1 -11 -4 -14 -7 -5 -8 11 -2 32 1 1 7 2 14 1 9 0 9 -2 -1
-6z m-7 -73 c-3 -4 0 -11 5 -13 6 -3 5 -4 -1 -3 -7 1 -13 10 -15 19 -1 9 2 15
7 11 5 -3 7 -9 4 -14z m-7000 -39 c3 -5 2 -12 -3 -15 -5 -3 -9 1 -9 9 0 17 3
19 12 6z m7007 -8 c-6 -2 -10 -9 -7 -13 3 -5 1 -11 -4 -14 -7 -5 -8 11 -2 32
1 1 7 2 14 1 9 0 9 -2 -1 -6z m-6995 -35 c-3 -8 -6 -5 -6 6 -1 11 2 17 5 13 3
-3 4 -12 1 -19z m-1 -36 c1 -7 3 -13 4 -14 7 -7 5 -56 -2 -52 -4 3 -8 -2 -8
-11 0 -9 4 -14 8 -11 4 2 8 -4 8 -15 0 -12 -7 -19 -21 -19 -16 0 -17 2 -5 10
9 6 10 10 3 10 -11 0 -10 30 2 49 3 5 1 12 -5 16 -7 4 -7 12 0 25 7 12 6 20 0
23 -6 3 -5 4 2 3 7 -2 14 -8 14 -14z m6989 -2 c-3 -4 0 -11 5 -13 6 -3 5 -4
-1 -3 -7 1 -13 10 -15 19 -1 9 2 15 7 11 5 -3 7 -9 4 -14z m0 -60 c-3 -4 0
-11 5 -13 6 -3 5 -4 -1 -3 -7 1 -13 10 -15 19 -1 9 2 15 7 11 5 -3 7 -9 4 -14z"/>
<path d="M1960 3256 c0 -17 16 -30 23 -19 3 5 -1 14 -9 21 -12 10 -14 10 -14
-2z"/>
</g>
</svg>
